Coordinates
version=1
nRows=37
nColumns=38
inDegrees=no

Units are S.I. units (second, meters, Newtons, ...)
If the header above contains a line with 'inDegrees', this indicates whether rotational values are in degrees (yes) or radians (no).

endheader
time	pelvis_tilt	pelvis_list	pelvis_rotation	pelvis_tx	pelvis_ty	pelvis_tz	hip_flexion_r	hip_adduction_r	hip_rotation_r	knee_angle_r	ankle_angle_r	subtalar_angle_r	mtp_angle_r	hip_flexion_l	hip_adduction_l	hip_rotation_l	knee_angle_l	ankle_angle_l	subtalar_angle_l	mtp_angle_l	lumbar_extension	lumbar_bending	lumbar_rotation	arm_flex_r	arm_add_r	arm_rot_r	elbow_flex_r	pro_sup_r	wrist_flex_r	wrist_dev_r	arm_flex_l	arm_add_l	arm_rot_l	elbow_flex_l	pro_sup_l	wrist_flex_l	wrist_dev_l
15	-0.358138	1.49565	1.98634	0.625919	0.496278	0.868818	0.632454	-0.194048	-0.0595902	1.12304	0.392637	0	0	0.635448	0.0378236	-0.0985965	1.13154	0.431764	0	0	-0.275513	0.164363	0.0645402	0.188513	-0.340991	0.209227	0.263724	1.05669	0	0	-0.177008	-0.255844	0.348909	0.877557	1.01805	0	0
15.01	-0.35755	1.49481	1.98479	0.626309	0.49744	0.872791	0.621884	-0.191807	-0.0612047	1.10467	0.386513	0	0	0.624398	0.03675	-0.100841	1.11243	0.425114	0	0	-0.268485	0.159812	0.0634207	0.181963	-0.338175	0.205381	0.265028	1.06141	0	0	-0.179677	-0.256178	0.348757	0.876461	1.01762	0	0
15.02	-0.354385	1.49406	1.98111	0.626674	0.498647	0.876784	0.611055	-0.189504	-0.0633027	1.08636	0.380227	0	0	0.613112	0.0355812	-0.102967	1.09292	0.418387	0	0	-0.261252	0.155596	0.0616065	0.175477	-0.334931	0.200422	0.266367	1.06687	0	0	-0.182576	-0.256447	0.348259	0.875018	1.01741	0	0
15.03	-0.348528	1.49331	1.97508	0.627025	0.499866	0.880777	0.600166	-0.187065	-0.0657219	1.06786	0.373835	0	0	0.601732	0.0343641	-0.104962	1.07289	0.411452	0	0	-0.253857	0.151608	0.0594191	0.169167	-0.33152	0.195704	0.267649	1.07287	0	0	-0.185465	-0.256749	0.347751	0.873154	1.01719	0	0
15.04	-0.34162	1.49259	1.96839	0.627345	0.501096	0.884773	0.588855	-0.184641	-0.0682452	1.04882	0.366594	0	0	0.590205	0.0332961	-0.106741	1.0524	0.404281	0	0	-0.24641	0.147769	0.0569934	0.162666	-0.327866	0.191276	0.269026	1.07828	0	0	-0.188177	-0.257005	0.347409	0.870793	1.01679	0	0
15.05	-0.336905	1.49216	1.9639	0.627659	0.502372	0.888782	0.576884	-0.182368	-0.0706718	1.02883	0.358185	0	0	0.578115	0.0321992	-0.108679	1.03179	0.397035	0	0	-0.239207	0.143788	0.0545115	0.155691	-0.323829	0.185479	0.271146	1.08381	0	0	-0.190897	-0.25731	0.347146	0.868694	1.01613	0	0
15.06	-0.332151	1.49202	1.95925	0.628036	0.503656	0.892786	0.564568	-0.179685	-0.0725003	1.00756	0.349531	0	0	0.565522	0.0307704	-0.110949	1.01082	0.389943	0	0	-0.232173	0.139717	0.0522341	0.148572	-0.319456	0.178738	0.273527	1.08976	0	0	-0.193609	-0.257974	0.347182	0.867302	1.01531	0	0
15.07	-0.331138	1.49253	1.95805	0.628483	0.504986	0.896822	0.551313	-0.176667	-0.0734159	0.984621	0.340084	0	0	0.551859	0.0289704	-0.113852	0.989501	0.382498	0	0	-0.225955	0.135375	0.0500902	0.141346	-0.314632	0.17037	0.276378	1.09752	0	0	-0.196303	-0.258815	0.347185	0.866055	1.01418	0	0
15.08	-0.330724	1.49256	1.95785	0.628959	0.506344	0.900708	0.53894	-0.174337	-0.0756952	0.964291	0.332187	0	0	0.538717	0.0275965	-0.11656	0.96813	0.375156	0	0	-0.21902	0.130541	0.0475153	0.133556	-0.309216	0.160399	0.279847	1.10576	0	0	-0.19913	-0.260181	0.34761	0.864924	1.01306	0	0
15.09	-0.328335	1.49339	1.95511	0.629509	0.507737	0.904697	0.525033	-0.17102	-0.0776882	0.942467	0.323874	0	0	0.524388	0.025567	-0.119609	0.945957	0.367645	0	0	-0.213435	0.125783	0.0476114	0.129027	-0.296262	0.0802977	0.273725	1.20423	0	0	-0.19961	-0.262291	0.352597	0.863049	1.00529	0	0
15.1	-0.318498	1.49435	1.94563	0.629938	0.509101	0.908598	0.510739	-0.167709	-0.0811722	0.921566	0.31706	0	0	0.51045	0.0238701	-0.121209	0.924102	0.360035	0	0	-0.207065	0.122002	0.0448117	0.120975	-0.290643	0.0709751	0.278542	1.2107	0	0	-0.202141	-0.263113	0.352973	0.861581	1.0032	0	0
15.11	-0.300305	1.49546	1.92998	0.630217	0.510602	0.91248	0.495106	-0.1649	-0.0873932	0.899088	0.310061	0	0	0.496649	0.022948	-0.120237	0.902189	0.352103	0	0	-0.199942	0.11923	0.0400265	0.111999	-0.284973	0.0619142	0.284285	1.21585	0	0	-0.204545	-0.26397	0.354324	0.858498	1.00136	0	0
15.12	-0.282955	1.49683	1.91456	0.630576	0.512086	0.916329	0.479312	-0.161451	-0.09244	0.875499	0.301848	0	0	0.482461	0.0218655	-0.119552	0.88008	0.344042	0	0	-0.193258	0.116244	0.0354879	0.102647	-0.279463	0.0560496	0.291246	1.21505	0	0	-0.206924	-0.26487	0.355767	0.854707	1.00052	0	0
15.13	-0.266859	1.4987	1.90017	0.630959	0.513495	0.920179	0.462737	-0.157582	-0.0968472	0.850665	0.29271	0	0	0.467627	0.0209639	-0.118626	0.857568	0.335643	0	0	-0.187454	0.11324	0.0311495	0.0934591	-0.274302	0.0545623	0.298302	1.2081	0	0	-0.20873	-0.265673	0.357221	0.851195	0.999925	0	0
15.14	-0.249414	1.50094	1.88439	0.631312	0.514899	0.924036	0.445484	-0.153617	-0.101828	0.826412	0.284282	0	0	0.452174	0.0202329	-0.117361	0.834502	0.327093	0	0	-0.182046	0.110463	0.0268925	0.0845992	-0.270178	0.0596944	0.304804	1.19495	0	0	-0.210208	-0.265955	0.358105	0.847803	1.00036	0	0
15.15	-0.240861	1.50403	1.87738	0.631794	0.516401	0.927981	0.426835	-0.149691	-0.106785	0.801919	0.276614	0	0	0.434855	0.0196276	-0.116837	0.810259	0.318421	0	0	-0.17825	0.106891	0.0253476	0.08202	-0.256351	-0.0214252	0.295357	1.30293	0	0	-0.208754	-0.268224	0.366394	0.844272	0.989007	0	0
15.16	-0.227924	1.50739	1.86587	0.632293	0.517943	0.931844	0.407306	-0.14532	-0.112169	0.775991	0.269057	0	0	0.417147	0.0184483	-0.116841	0.785994	0.310114	0	0	-0.174109	0.103756	0.0221981	0.0747649	-0.250947	-0.0262927	0.297205	1.30725	0	0	-0.208937	-0.269363	0.370471	0.839545	0.987689	0	0
15.17	-0.218681	1.51055	1.85805	0.632838	0.519504	0.935591	0.387738	-0.141364	-0.117841	0.749477	0.260878	0	0	0.399244	0.017359	-0.117548	0.761195	0.301752	0	0	-0.169783	0.10005	0.019294	0.0675022	-0.245363	-0.0304134	0.298344	1.31133	0	0	-0.209039	-0.270734	0.374494	0.835308	0.986735	0	0
15.18	-0.216211	1.51341	1.85691	0.633429	0.52107	0.939196	0.368312	-0.137926	-0.123354	0.722424	0.252384	0	0	0.381338	0.0164346	-0.119244	0.735978	0.293265	0	0	-0.165312	0.0955989	0.0165272	0.0604562	-0.239606	-0.0337401	0.298747	1.31514	0	0	-0.209195	-0.272252	0.377951	0.83179	0.985889	0	0
15.19	-0.202768	1.51678	1.8444	0.634039	0.522595	0.942833	0.347667	-0.1333	-0.128896	0.693486	0.243353	0	0	0.362924	0.014254	-0.121998	0.710327	0.284462	0	0	-0.161519	0.0919441	0.0148827	0.0536954	-0.23434	-0.0364288	0.298145	1.31905	0	0	-0.208342	-0.273163	0.381796	0.82721	0.985196	0	0
15.2	-0.18273	1.52005	1.82506	0.634683	0.52411	0.946365	0.327237	-0.128259	-0.134319	0.664286	0.233943	0	0	0.34471	0.0113699	-0.126014	0.684655	0.275595	0	0	-0.157533	0.0883839	0.0139083	0.0465636	-0.228992	-0.0404531	0.297567	1.32357	0	0	-0.207363	-0.273915	0.385294	0.823226	0.984498	0	0
15.21	-0.155273	1.52278	1.79854	0.635347	0.525626	0.949722	0.307564	-0.123096	-0.139935	0.635085	0.224081	0	0	0.327278	0.00813759	-0.13074	0.659276	0.266923	0	0	-0.152789	0.0848851	0.0129414	0.038936	-0.223563	-0.0452807	0.297435	1.32818	0	0	-0.206291	-0.274808	0.388974	0.819269	0.98333	0	0
15.22	-0.122677	1.52486	1.7672	0.636009	0.527116	0.952875	0.289156	-0.118022	-0.14552	0.606584	0.213782	0	0	0.310733	0.00488873	-0.135853	0.634116	0.258342	0	0	-0.147366	0.0813409	0.0117366	0.0312479	-0.218123	-0.0495856	0.29691	1.3325	0	0	-0.205511	-0.275649	0.391904	0.815639	0.981882	0	0
15.23	-0.0890641	1.52588	1.73465	0.636644	0.52852	0.955764	0.272934	-0.113336	-0.15068	0.579782	0.203577	0	0	0.295615	0.00189596	-0.141521	0.609434	0.249865	0	0	-0.141138	0.0775335	0.0107155	0.0237083	-0.213043	-0.0532326	0.295956	1.33616	0	0	-0.205133	-0.276432	0.393882	0.812918	0.980441	0	0
15.24	-0.0521505	1.52639	1.69952	0.637205	0.529941	0.958429	0.256824	-0.108955	-0.156843	0.552927	0.194128	0	0	0.281312	-0.000905242	-0.146936	0.585342	0.241738	0	0	-0.134398	0.0738412	0.00897187	0.0156847	-0.208159	-0.057287	0.295453	1.33966	0	0	-0.205261	-0.277329	0.395199	0.81144	0.979049	0	0
15.25	-0.0177158	1.52719	1.6675	0.637749	0.53141	0.960964	0.239993	-0.104808	-0.163729	0.52573	0.184949	0	0	0.266353	-0.00334286	-0.152158	0.560697	0.23385	0	0	-0.128068	0.0700913	0.00645547	0.00714605	-0.2032	-0.0624061	0.296107	1.34294	0	0	-0.206167	-0.278188	0.394552	0.811333	0.977692	0	0
15.26	0.0155905	1.52746	1.63728	0.638256	0.532852	0.963282	0.223967	-0.100916	-0.171144	0.499055	0.175865	0	0	0.251964	-0.00533532	-0.156813	0.535973	0.22618	0	0	-0.121331	0.0662328	0.00304359	-0.00154844	-0.198343	-0.0660427	0.296952	1.34552	0	0	-0.207723	-0.279251	0.392747	0.81214	0.976551	0	0
15.27	0.0398139	1.5275	1.61651	0.638717	0.53428	0.965384	0.208327	-0.0975444	-0.178721	0.473101	0.167476	0	0	0.238126	-0.00677514	-0.161277	0.511998	0.218916	0	0	-0.114326	0.0619651	-0.00100836	-0.0099594	-0.19378	-0.0677984	0.297335	1.34789	0	0	-0.209751	-0.280461	0.390316	0.814002	0.974973	0	0
15.28	0.0638187	1.52747	1.59559	0.639174	0.53568	0.967332	0.193466	-0.0940835	-0.185891	0.44823	0.159113	0	0	0.224485	-0.00820418	-0.166028	0.488272	0.211841	0	0	-0.107301	0.0577936	-0.00486104	-0.0181601	-0.18964	-0.0683891	0.297586	1.3508	0	0	-0.211691	-0.281435	0.387926	0.815532	0.972901	0	0
15.29	0.116413	1.52715	1.54616	0.639581	0.53695	0.969185	0.180303	-0.0892534	-0.193643	0.425592	0.150289	0	0	0.211745	-0.0109079	-0.170317	0.465329	0.204986	0	0	-0.100338	0.0552709	-0.00844733	-0.0263805	-0.185656	-0.0709357	0.298357	1.35214	0	0	-0.212569	-0.281767	0.386368	0.815493	0.970874	0	0
15.3	0.186299	1.52591	1.47902	0.640071	0.538037	0.970862	0.170371	-0.0836947	-0.200942	0.406871	0.141626	0	0	0.200797	-0.0148119	-0.174852	0.443839	0.198538	0	0	-0.09299	0.0537619	-0.011521	-0.0341669	-0.181922	-0.0738087	0.299165	1.35282	0	0	-0.212484	-0.281811	0.385671	0.813947	0.968684	0	0
15.31	0.260758	1.52302	1.40737	0.640684	0.538988	0.97226	0.163474	-0.0776244	-0.207608	0.390902	0.133768	0	0	0.193085	-0.0197926	-0.179159	0.425561	0.193002	0	0	-0.0842029	0.0528263	-0.0150994	-0.0420674	-0.179463	-0.0643266	0.30042	1.33976	0	0	-0.21249	-0.281599	0.383689	0.811236	0.971311	0	0
15.32	0.324767	1.52199	1.34675	0.641119	0.540014	0.973663	0.152649	-0.0719131	-0.214894	0.371942	0.126045	0	0	0.183325	-0.0236059	-0.182449	0.407459	0.187709	0	0	-0.0776855	0.0515703	-0.0190337	-0.04831	-0.175928	-0.0665588	0.298689	1.34349	0	0	-0.211439	-0.281457	0.383362	0.808111	0.970683	0	0
15.33	0.367537	1.52252	1.30812	0.641418	0.541175	0.974923	0.137508	-0.0670012	-0.2222	0.348369	0.118625	0	0	0.172076	-0.0254311	-0.183855	0.389606	0.182532	0	0	-0.0725681	0.0489164	-0.023921	-0.0540195	-0.172048	-0.0693566	0.295952	1.34739	0	0	-0.210113	-0.281913	0.384364	0.80411	0.969366	0	0
15.34	0.395848	1.5252	1.28448	0.641661	0.542426	0.976079	0.118288	-0.0630073	-0.229196	0.321401	0.111289	0	0	0.158788	-0.0254494	-0.183491	0.371987	0.177393	0	0	-0.0695657	0.0448598	-0.0290884	-0.0590967	-0.167686	-0.0726808	0.292089	1.34984	0	0	-0.207446	-0.284733	0.393494	0.800053	0.946608	0	0
15.35	0.397783	1.52659	1.28697	0.641909	0.543633	0.976865	0.101748	-0.060161	-0.235537	0.296325	0.105275	0	0	0.14832	-0.0245914	-0.182841	0.356506	0.173255	0	0	-0.0647753	0.0400505	-0.0342439	-0.0641829	-0.163891	-0.0709116	0.287898	1.34686	0	0	-0.204597	-0.286669	0.401012	0.792907	0.934014	0	0
15.36	0.395665	1.52757	1.29193	0.642372	0.544691	0.977465	0.0874443	-0.0575144	-0.238884	0.273836	0.0998798	0	0	0.139357	-0.0242799	-0.183582	0.343078	0.170048	0	0	-0.0600884	0.0352365	-0.0373847	-0.0684878	-0.160454	-0.0677371	0.282588	1.34344	0	0	-0.199967	-0.288885	0.411847	0.783812	0.916719	0	0
